<?xml version="1.0" encoding="utf-8"?><!DOCTYPE svg PUBLIC "-//W3C//DTD SVG 1.1//EN" "http://www.w3.org/Graphics/SVG/1.1/DTD/svg11.dtd"><svg version="1.1" xmlns="http://www.w3.org/2000/svg" xmlns:xlink="http://www.w3.org/1999/xlink" width="32" height="32" viewBox="0 0 32 32" data-tags="figma"><g fill="#444" transform="scale(0.03125 0.03125)"><path fill="rgb(242, 78, 30)" d="M512 512c0-94.257 76.41-170.667 170.667-170.667s170.667 76.41 170.667 170.667v0c0 94.257-76.41 170.667-170.667 170.667s-170.667-76.41-170.667-170.667v0zM170.667 853.333c0-94.257 76.41-170.667 170.667-170.667v0h170.667v170.667c0 94.257-76.41 170.667-170.667 170.667s-170.667-76.41-170.667-170.667v0zM512 0v341.333h170.667c94.257 0 170.667-76.41 170.667-170.667s-76.41-170.667-170.667-170.667v0zM170.667 170.667c0 94.257 76.41 170.667 170.667 170.667v0h170.667v-341.333h-170.667c-94.257 0-170.667 76.41-170.667 170.667v0zM170.667 512c0 94.257 76.41 170.667 170.667 170.667v0h170.667v-341.333h-170.667c-94.257 0-170.667 76.41-170.667 170.667v0z" /></g></svg>